<?xml version="1.0" encoding="utf-8"?>
<!-- Generator: Adobe Illustrator 16.0.0, SVG Export Plug-In . SVG Version: 6.00 Build 0)  -->
<!DOCTYPE svg PUBLIC "-//W3C//DTD SVG 1.1//EN" "http://www.w3.org/Graphics/SVG/1.1/DTD/svg11.dtd">
<svg version="1.1" id="Layer_1" xmlns="http://www.w3.org/2000/svg" xmlns:xlink="http://www.w3.org/1999/xlink" x="0px" y="0px"
	 width="128px" height="128px" viewBox="0 0 128 128" enable-background="new 0 0 128 128" xml:space="preserve">
<g>
	<g>
		<path fill="#B0BEC5" d="M64,0C28.656,0,0,28.656,0,64s28.656,64,64,64s64-28.656,64-64S99.344,0,64,0z M64,120
			C33.125,120,8,94.875,8,64S33.125,8,64,8s56,25.125,56,56S94.875,120,64,120z"/>
	</g>
</g>
<g>
	<g>
		<path fill="#8BC34A" d="M96,56H72V32c0-4.414-3.586-8-8-8s-8,3.586-8,8v24H32c-4.414,0-8,3.586-8,8s3.586,8,8,8h24v24
			c0,4.414,3.586,8,8,8s8-3.586,8-8V72h24c4.414,0,8-3.586,8-8S100.414,56,96,56z"/>
	</g>
</g>
</svg>
