<?xml version="1.0" encoding="utf-8"?>
<!-- Generator: Adobe Illustrator 16.0.0, SVG Export Plug-In . SVG Version: 6.00 Build 0)  -->
<!DOCTYPE svg PUBLIC "-//W3C//DTD SVG 1.1//EN" "http://www.w3.org/Graphics/SVG/1.1/DTD/svg11.dtd">
<svg version="1.1" id="Layer_1" xmlns="http://www.w3.org/2000/svg" xmlns:xlink="http://www.w3.org/1999/xlink" x="0px" y="0px"
	 width="128px" height="128px" viewBox="0 0 128 128" enable-background="new 0 0 128 128" xml:space="preserve">
<g>
	<g>
		<path fill="#546E7A" d="M123.315,100.688L86.624,64h1.375c2.125,0,4.156-0.844,5.656-2.344l8-8
			c1.563-1.563,2.344-3.609,2.344-5.656s-0.781-4.094-2.344-5.656l-39.999-40C60.094,0.782,58.047,0,56,0s-4.094,0.781-5.656,2.344
			l-8,8C40.844,11.844,40,13.875,40,16v12.688L28.688,40H16c-2.125,0-4.156,0.844-5.656,2.344l-8,8C0.781,51.907,0,53.954,0,56
			s0.781,4.094,2.344,5.656l40,40C43.906,103.219,45.953,104,48,104s4.094-0.781,5.656-2.344l8-8C63.156,92.156,64,90.125,64,88
			v-1.375l36.687,36.688c3.125,3.125,7.219,4.688,11.313,4.688c4.098,0,8.191-1.563,11.316-4.688
			C129.562,117.07,129.562,106.938,123.315,100.688z M117.659,117.656c-1.512,1.508-3.523,2.344-5.66,2.344
			c-2.133,0-4.145-0.836-5.656-2.344L69.655,80.969L56,67.313V88l-8,8L8,56l8-8h16l16-16V16l7.992-8c0.004,0,0.004,0,0.004,0H56
			l39.999,40l-8,8H67.308l13.66,13.656l36.688,36.688c1.512,1.508,2.344,3.523,2.344,5.656
			C119.999,114.141,119.171,116.148,117.659,117.656z"/>
	</g>
</g>
<path fill="#B0BEC5" d="M56,112H8c-4.418,0-8,3.578-8,8s3.582,8,8,8h48c4.418,0,8-3.578,8-8S60.418,112,56,112L56,112z"/>
</svg>
