<?xml version="1.0" encoding="utf-8"?>
<!-- Generator: Adobe Illustrator 16.0.0, SVG Export Plug-In . SVG Version: 6.00 Build 0)  -->
<!DOCTYPE svg PUBLIC "-//W3C//DTD SVG 1.1//EN" "http://www.w3.org/Graphics/SVG/1.1/DTD/svg11.dtd">
<svg version="1.1" id="Layer_1" xmlns="http://www.w3.org/2000/svg" xmlns:xlink="http://www.w3.org/1999/xlink" x="0px" y="0px"
	 width="128px" height="128px" viewBox="0 0 128 128" enable-background="new 0 0 128 128" xml:space="preserve">
<g>
	<g>
		<path fill="#546E7A" d="M64,16L36,40h56L64,16z M64,26.539L70.375,32h-12.75L64,26.539z M112,104h-4V56h8
			c3.426,0,6.473-2.18,7.574-5.422s0.02-6.828-2.695-8.922L71.66,1.953C69.273,0.648,66.637,0,64,0s-5.273,0.648-7.66,1.953
			L7.121,41.656c-2.715,2.094-3.797,5.68-2.695,8.922S8.574,56,12,56h8v48h-4c-6.629,0-12,5.375-12,12s5.371,12,12,12h96
			c6.629,0,12-5.375,12-12S118.629,104,112,104z M12.144,47.883L60.707,8.711C61.734,8.242,62.863,8,64,8s2.266,0.242,3.293,0.711
			L116,48L12.144,47.883z M100,56v48h-8V56H100z M84,56v48h-8V56H84z M68,56v48h-8V56H68z M52,56v48h-8V56H52z M36,56v48h-8V56H36z
			 M112,120H16c-2.207,0-4-1.797-4-4s1.793-4,4-4h96c2.207,0,4,1.797,4,4S114.207,120,112,120z"/>
	</g>
</g>
</svg>
