<?xml version="1.0" encoding="utf-8"?>
<!-- Generator: Adobe Illustrator 16.0.0, SVG Export Plug-In . SVG Version: 6.00 Build 0)  -->
<!DOCTYPE svg PUBLIC "-//W3C//DTD SVG 1.1//EN" "http://www.w3.org/Graphics/SVG/1.1/DTD/svg11.dtd">
<svg version="1.1" id="Layer_1" xmlns="http://www.w3.org/2000/svg" xmlns:xlink="http://www.w3.org/1999/xlink" x="0px" y="0px"
	 width="128px" height="128px" viewBox="0 0 128 128" enable-background="new 0 0 128 128" xml:space="preserve">
<g>
	<g>
		<path fill-rule="evenodd" clip-rule="evenodd" fill="#B0BEC5" d="M124,112H16V4c0-2.211-1.789-4-4-4S8,1.789,8,4v12H4
			c-2.211,0-4,1.789-4,4s1.789,4,4,4h4v24H4c-2.211,0-4,1.789-4,4s1.789,4,4,4h4v24H4c-2.211,0-4,1.789-4,4s1.789,4,4,4h4v24H4
			c-2.211,0-4,1.789-4,4s1.789,4,4,4h4v4c0,2.211,1.789,4,4,4s4-1.789,4-4v-4h24v4c0,2.211,1.789,4,4,4s4-1.789,4-4v-4h24v4
			c0,2.211,1.789,4,4,4s4-1.789,4-4v-4h24v4c0,2.211,1.789,4,4,4s4-1.789,4-4v-4h12c2.211,0,4-1.789,4-4S126.211,112,124,112z
			 M64,88h-8v8h8V88z M80,96v-8h-8v8H80z M72,80h-8v8h8V80z M56,72v8h8v-8H56z M80,80v-8h-8v8H80z M72,64h-8v8h8V64z M56,56v8h8v-8
			H56z M80,64v-8h-8v8H80z M72,48h-8v8h8V48z M56,40v8h8v-8H56z M80,48v-8h-8v8H80z M72,32h-8v8h8V32z M56,24v8h8v-8H56z M72,16h-8
			v8h8V16z M80,32v-8h-8v8H80z"/>
	</g>
</g>
<path fill="#546E7A" d="M32,104h72c4.418,0,8-3.578,8-8V40c0-4.422-3.582-8-8-8H88V16c0-4.422-3.582-8-8-8H56c-4.418,0-8,3.578-8,8
	v40H32c-4.418,0-8,3.578-8,8v32C24,100.422,27.582,104,32,104z M88,40h16v56H88V40z M56,16h24v80H56V16z M32,64h16v32H32V64z"/>
</svg>
