<?xml version="1.0" encoding="utf-8"?>
<!-- Generator: Adobe Illustrator 16.0.0, SVG Export Plug-In . SVG Version: 6.00 Build 0)  -->
<!DOCTYPE svg PUBLIC "-//W3C//DTD SVG 1.1//EN" "http://www.w3.org/Graphics/SVG/1.1/DTD/svg11.dtd">
<svg version="1.1" id="Layer_1" xmlns="http://www.w3.org/2000/svg" xmlns:xlink="http://www.w3.org/1999/xlink" x="0px" y="0px"
	 width="128px" height="128px" viewBox="0 0 128 128" enable-background="new 0 0 128 128" xml:space="preserve">
<g>
	<g>
		<path fill="#546E7A" d="M108,24h-7.223l4.723,3.75L105.113,32H108c4.41,0,8,3.586,8,8v48c0,4.414-3.59,8-8,8H68v4
			c0,2.211-1.789,4-4,4s-4-1.789-4-4v-4H20c-4.41,0-8-3.586-8-8V40c0-4.414,3.59-8,8-8h3.707l0.543-3.25L29,24h-9
			c-8.836,0-16,7.164-16,16v48c0,8.836,7.164,16,16,16h32.738c1.656,4.648,6.055,8,11.262,8s9.605-3.352,11.262-8H108
			c8.836,0,16-7.164,16-16V40C124,31.164,116.836,24,108,24z"/>
	</g>
</g>
<path fill="#CFD8DC" d="M52,40L52,40H36l0,0v-8l0,0h16l0,0V40z"/>
<path fill="#CFD8DC" d="M52,56L52,56H36l0,0v-8l0,0h16l0,0V56z"/>
<path fill="#CFD8DC" d="M52,72L52,72H36l0,0v-8l0,0h16l0,0V72z"/>
<path fill="#CFD8DC" d="M92,40L92,40H76l0,0v-8l0,0h16l0,0V40z"/>
<path fill="#CFD8DC" d="M92,56L92,56H76l0,0v-8l0,0h16l0,0V56z"/>
<path fill="#CFD8DC" d="M92,72L92,72H76l0,0v-8l0,0h16l0,0V72z"/>
<path fill="#B0BEC5" d="M84,16c-6.914,0-13.785,1.852-20,5.367C57.785,17.852,50.914,16,44,16c-8.422,0-16.844,2.602-24,7.82
	c0,16.273,0,64.93,0,65.18c0,2.211,1.789,4,4,4c0.395,0,13.832-4.82,20-4.82c6.355,0,12.656,1.625,18.461,4.609l0.066-0.039
	l0.004-0.008c0.457,0.18,0.945,0.297,1.469,0.297s1.012-0.117,1.469-0.297l0.004,0.008l0.066,0.039
	C71.344,89.805,77.645,88.18,84,88.18c6.168,0,19.605,4.82,20,4.82c2.211,0,4-1.789,4-4c0-0.25,0-48.906,0-65.18
	C100.844,18.602,92.422,16,84,16z M28,82.844V28.195c4.875-2.742,10.336-4.172,16-4.172s11.125,1.43,16,4.172
	c0,12.883,0,41.766,0,54.648c-5.098-1.781-10.484-2.688-16-2.688S33.098,81.063,28,82.844z M100,82.844
	c-5.098-1.781-10.484-2.688-16-2.688s-10.902,0.906-16,2.688c0-12.883,0-41.766,0-54.648c4.875-2.742,10.336-4.172,16-4.172
	s11.125,1.43,16,4.172V82.844z"/>
</svg>
