<?xml version="1.0" encoding="utf-8"?>
<!-- Generator: Adobe Illustrator 16.0.0, SVG Export Plug-In . SVG Version: 6.00 Build 0)  -->
<!DOCTYPE svg PUBLIC "-//W3C//DTD SVG 1.1//EN" "http://www.w3.org/Graphics/SVG/1.1/DTD/svg11.dtd">
<svg version="1.1" id="Layer_1" xmlns="http://www.w3.org/2000/svg" xmlns:xlink="http://www.w3.org/1999/xlink" x="0px" y="0px"
	 width="128px" height="128px" viewBox="0 0 128 128" enable-background="new 0 0 128 128" xml:space="preserve">
<g>
	<g>
		<path fill="#B0BEC5" d="M104,0H24C10.746,0,0,10.742,0,24v48c0,13.258,10.746,24,24,24h24c0,4.414-3.59,8-8,8h-4
			c-6.629,0-12,5.375-12,12s5.371,12,12,12h56c6.629,0,12-5.375,12-12s-5.371-12-12-12h-4c-4.41,0-8-3.586-8-8h24
			c13.254,0,24-10.742,24-24V24C128,10.742,117.254,0,104,0z M88,112h4c2.207,0,4,1.797,4,4s-1.793,4-4,4H36c-2.207,0-4-1.797-4-4
			s1.793-4,4-4h4c8.836,0,16-7.164,16-16h16C72,104.836,79.164,112,88,112z M120,72c0,8.82-7.176,16-16,16H24
			c-8.824,0-16-7.18-16-16V24c0-8.82,7.176-16,16-16h80c8.824,0,16,7.18,16,16V72z"/>
	</g>
</g>
<path fill="#03A9F4" d="M104,24v48H24V24H104 M104,16H24c-4.418,0-8,3.578-8,8v48c0,4.422,3.582,8,8,8h80c4.418,0,8-3.578,8-8V24
	C112,19.578,108.418,16,104,16L104,16z"/>
</svg>
