<?xml version="1.0" encoding="utf-8"?>
<!-- Generator: Adobe Illustrator 16.0.0, SVG Export Plug-In . SVG Version: 6.00 Build 0)  -->
<!DOCTYPE svg PUBLIC "-//W3C//DTD SVG 1.1//EN" "http://www.w3.org/Graphics/SVG/1.1/DTD/svg11.dtd">
<svg version="1.1" id="Layer_1" xmlns="http://www.w3.org/2000/svg" xmlns:xlink="http://www.w3.org/1999/xlink" x="0px" y="0px"
	 width="128px" height="128px" viewBox="0 0 128 128" enable-background="new 0 0 128 128" xml:space="preserve">
<g>
	<g>
		<path fill="#B0BEC5" d="M128,120V24c0-4.422-3.582-8-8-8H88v8h32v96H8V24h32v-8H8c-4.422,0-8,3.578-8,8v96c0,4.422,3.578,8,8,8
			h112C124.418,128,128,124.422,128,120z"/>
	</g>
</g>
<path fill="#03A9F4" d="M40,48c0-2.047,0.781-4.094,2.344-5.656c3.125-3.125,8.188-3.125,11.313,0L56,44.688V16c0-4.422,3.582-8,8-8
	s8,3.578,8,8v28.688l2.344-2.344c3.125-3.125,8.188-3.125,11.313,0C87.219,43.906,88,45.953,88,48s-0.781,4.094-2.344,5.656l-16,16
	c-3.125,3.125-8.188,3.125-11.313,0l-16-16C40.781,52.094,40,50.047,40,48 M32,48c0,4.273,1.664,8.289,4.688,11.313l16,16
	C55.711,78.336,59.727,80,64,80s8.289-1.664,11.313-4.688l16-16C94.336,56.289,96,52.273,96,48s-1.664-8.289-4.688-11.313
	c-3.117-3.117-7.215-4.68-11.313-4.68V16c0-8.82-7.176-16-16-16c-8.82,0-16,7.18-16,16v16.008c-4.098,0-8.195,1.563-11.313,4.68
	C33.664,39.711,32,43.727,32,48L32,48z"/>
<path fill="#90CAF9" d="M104,104H24v-8h80V104 M112,112V88H16v24H112L112,112z"/>
</svg>
