<?xml version="1.0" encoding="utf-8"?>
<!-- Generator: Adobe Illustrator 16.0.0, SVG Export Plug-In . SVG Version: 6.00 Build 0)  -->
<!DOCTYPE svg PUBLIC "-//W3C//DTD SVG 1.1//EN" "http://www.w3.org/Graphics/SVG/1.1/DTD/svg11.dtd">
<svg version="1.1" id="Layer_1" xmlns="http://www.w3.org/2000/svg" xmlns:xlink="http://www.w3.org/1999/xlink" x="0px" y="0px"
	 width="128px" height="128px" viewBox="0 0 128 128" enable-background="new 0 0 128 128" xml:space="preserve">
<g>
	<g>
		<path fill="#FFE082" d="M83.469,28.133L72,56l6.68-35.578C70.75,8.141,64,0,64,0S24,48,24,88c0,22.094,17.906,40,40,40
			s40-17.906,40-40C104,67.648,93.648,45.25,83.469,28.133z M64,120c-17.648,0-32-14.352-32-32c0-27.422,21.203-60.023,32-74.844
			c1.828,2.516,3.953,5.539,6.227,8.953l-6.086,32.414c-0.758,4.031,1.656,7.984,5.586,9.148C70.484,63.891,71.25,64,72,64
			c3.172,0,6.141-1.891,7.398-4.953l5.063-12.305C92.047,62.305,96,76.375,96,88C96,105.648,81.648,120,64,120z"/>
	</g>
</g>
<path fill="#FFA000" d="M64,104c4.414,0,8,3.586,8,8s-3.586,8-8,8s-8-3.586-8-8S59.586,104,64,104 M64,96c-8.836,0-16,7.164-16,16
	s7.164,16,16,16s16-7.164,16-16S72.836,96,64,96L64,96z"/>
</svg>
