<?xml version="1.0" encoding="utf-8"?>
<!-- Generator: Adobe Illustrator 16.0.0, SVG Export Plug-In . SVG Version: 6.00 Build 0)  -->
<!DOCTYPE svg PUBLIC "-//W3C//DTD SVG 1.1//EN" "http://www.w3.org/Graphics/SVG/1.1/DTD/svg11.dtd">
<svg version="1.1" id="Layer_1" xmlns="http://www.w3.org/2000/svg" xmlns:xlink="http://www.w3.org/1999/xlink" x="0px" y="0px"
	 width="128px" height="128px" viewBox="0 0 128 128" enable-background="new 0 0 128 128" xml:space="preserve">
<path fill="#FFA000" d="M126.387,43.184l-7.23-14.762C117.801,25.711,115.031,24,112,24H64.433l-0.844-2.531
	C62.5,18.204,59.445,16,56,16H8c-2.398,0-4.668,1.074-6.188,2.93c-1.52,1.852-2.129,4.289-1.656,6.641l16,80
	C16.902,109.309,20.188,112,24,112h80c3.57,0,6.711-2.367,7.691-5.801l16-56C128.383,47.786,127.898,45.186,126.387,43.184z M112,32
	l4,8H69.766l-2.664-8H112z M104,104H24L8,24H56l8,24h56L104,104z"/>
</svg>
