<?xml version="1.0" encoding="utf-8"?>
<!-- Generator: Adobe Illustrator 16.0.0, SVG Export Plug-In . SVG Version: 6.00 Build 0)  -->
<!DOCTYPE svg PUBLIC "-//W3C//DTD SVG 1.1//EN" "http://www.w3.org/Graphics/SVG/1.1/DTD/svg11.dtd">
<svg version="1.1" id="Layer_1" xmlns="http://www.w3.org/2000/svg" xmlns:xlink="http://www.w3.org/1999/xlink" x="0px" y="0px"
	 width="128px" height="128px" viewBox="0 0 128 128" enable-background="new 0 0 128 128" xml:space="preserve">
<path fill="#03A9F4" d="M124,60h-4c0-8.836-7.164-16-16-16H88c-5.848,0-10.906,3.168-13.699,7.852C71.512,49.484,67.945,48,64,48
	s-7.512,1.484-10.301,3.852C50.906,47.168,45.848,44,40,44H24c-8.836,0-16,7.164-16,16H4c-2.211,0-4,1.789-4,4s1.789,4,4,4h4
	c0,8.836,7.164,16,16,16h16c8.836,0,16-7.164,16-16v-4c0-4.41,3.59-8,8-8s8,3.59,8,8v4c0,8.836,7.164,16,16,16h16
	c8.836,0,16-7.164,16-16h4c2.211,0,4-1.789,4-4S126.211,60,124,60z M48,68c0,4.41-3.59,8-8,8H24c-4.41,0-8-3.59-8-8v-8
	c0-4.41,3.59-8,8-8h16c4.41,0,8,3.59,8,8V68z M112,68c0,4.41-3.59,8-8,8H88c-4.41,0-8-3.59-8-8v-8c0-4.41,3.59-8,8-8h16
	c4.41,0,8,3.59,8,8V68z"/>
</svg>
