<?xml version="1.0" encoding="utf-8"?>
<!-- Generator: Adobe Illustrator 16.0.0, SVG Export Plug-In . SVG Version: 6.00 Build 0)  -->
<!DOCTYPE svg PUBLIC "-//W3C//DTD SVG 1.1//EN" "http://www.w3.org/Graphics/SVG/1.1/DTD/svg11.dtd">
<svg version="1.1" id="Layer_1" xmlns="http://www.w3.org/2000/svg" xmlns:xlink="http://www.w3.org/1999/xlink" x="0px" y="0px"
	 width="128px" height="128px" viewBox="0 0 128 128" enable-background="new 0 0 128 128" xml:space="preserve">
<g>
	<g>
		<path fill="#546E7A" d="M120,16H8c-4.418,0-8,3.582-8,8v80c0,4.418,3.582,8,8,8h112c4.418,0,8-3.582,8-8V24
			C128,19.582,124.418,16,120,16z M120,104H8V24h112V104z"/>
	</g>
</g>
<path fill="#FFA000" d="M32,40c4.422,0,8,3.578,8,8s-3.578,8-8,8s-8-3.578-8-8S27.578,40,32,40 M32,32c-8.824,0-16,7.176-16,16
	s7.176,16,16,16s16-7.176,16-16S40.824,32,32,32L32,32z"/>
<path fill="#B0BEC5" d="M28,96c-1.023,0-2.047-0.391-2.828-1.172c-1.563-1.563-1.563-4.094,0-5.656l24-24
	c1.227-1.219,3.086-1.52,4.617-0.75l13.016,6.508l21.996-29.328c0.773-1.039,2.055-1.645,3.309-1.602
	c1.301,0.039,2.5,0.699,3.219,1.781l16,24c1.227,1.84,0.73,4.32-1.109,5.547c-1.844,1.215-4.328,0.727-5.547-1.109L91.809,50.922
	L71.199,78.398c-1.156,1.551-3.258,2.047-4.988,1.18l-13.422-6.711L30.828,94.828C30.047,95.609,29.023,96,28,96z"/>
</svg>
