<?xml version="1.0" encoding="utf-8"?>
<!-- Generator: Adobe Illustrator 16.0.0, SVG Export Plug-In . SVG Version: 6.00 Build 0)  -->
<!DOCTYPE svg PUBLIC "-//W3C//DTD SVG 1.1//EN" "http://www.w3.org/Graphics/SVG/1.1/DTD/svg11.dtd">
<svg version="1.1" id="Layer_1" xmlns="http://www.w3.org/2000/svg" xmlns:xlink="http://www.w3.org/1999/xlink" x="0px" y="0px"
	 width="128px" height="128px" viewBox="0 0 128 128" enable-background="new 0 0 128 128" xml:space="preserve">
<g>
	<g>
		<path fill="#81D4FA" d="M127.744,46.594c-0.777-2.07-3.086-3.113-5.152-2.34L94.655,54.731L79.847,2.902
			C79.354,1.184,77.784,0,75.999,0H52c-1.785,0-3.355,1.184-3.848,2.902L33.344,54.731L5.406,44.254
			c-2.063-0.773-4.375,0.27-5.152,2.34c-0.773,2.07,0.273,4.375,2.34,5.152l30.421,11.408l27.32,62.447
			c0.637,1.457,2.074,2.398,3.664,2.398s3.027-0.941,3.664-2.398l27.32-62.447l30.421-11.408
			C127.471,50.969,128.518,48.664,127.744,46.594z M55.015,8h17.968l13.712,48H41.303L55.015,8z M63.999,114.016L42.117,64h43.765
			L63.999,114.016z"/>
	</g>
</g>
<path fill="#03A9F4" d="M95.999,8l23.999,40l-55.999,72L8,48L32,8H95.999L95.999,8 M95.999,0H32c-2.809,0-5.414,1.473-6.859,3.883
	l-24,40c-1.699,2.836-1.484,6.422,0.543,9.027l55.999,72c1.516,1.949,3.848,3.09,6.316,3.09s4.801-1.141,6.316-3.09l55.999-72
	c2.027-2.605,2.242-6.191,0.543-9.027l-23.999-40C101.413,1.473,98.808,0,95.999,0L95.999,0z"/>
</svg>
