<?xml version="1.0" encoding="utf-8"?>
<!-- Generator: Adobe Illustrator 16.0.0, SVG Export Plug-In . SVG Version: 6.00 Build 0)  -->
<!DOCTYPE svg PUBLIC "-//W3C//DTD SVG 1.1//EN" "http://www.w3.org/Graphics/SVG/1.1/DTD/svg11.dtd">
<svg version="1.1" id="Layer_1" xmlns="http://www.w3.org/2000/svg" xmlns:xlink="http://www.w3.org/1999/xlink" x="0px" y="0px"
	 width="128px" height="128px" viewBox="0 0 128 128" enable-background="new 0 0 128 128" xml:space="preserve">
<g>
	<g>
		<path fill="#B0BEC5" d="M84,20H44C19.699,20,0,39.703,0,64s19.699,44,44,44c7.211,0,13.996-1.766,20-4.844
			C70.004,106.234,76.789,108,84,108c24.301,0,44-19.703,44-44S108.301,20,84,20z M84,100c-5.719,0-11.223-1.336-16.352-3.961
			c-1.145-0.586-2.395-0.883-3.648-0.883s-2.504,0.297-3.648,0.883C55.223,98.664,49.719,100,44,100C24.148,100,8,83.852,8,64
			s16.148-36,36-36h40c19.852,0,36,16.148,36,36S103.852,100,84,100z"/>
	</g>
</g>
<path fill="#546E7A" d="M44,92c-6.617,0-12-5.383-12-12v-4h-4c-6.617,0-12-5.383-12-12s5.383-12,12-12h4v-4c0-6.617,5.383-12,12-12
	s12,5.383,12,12v4h4c6.617,0,12,5.383,12,12s-5.383,12-12,12h-4v4C56,86.617,50.617,92,44,92z M28,60c-2.207,0-4,1.797-4,4
	s1.793,4,4,4h8c2.211,0,4,1.789,4,4v8c0,2.203,1.793,4,4,4s4-1.797,4-4v-8c0-2.211,1.789-4,4-4h8c2.207,0,4-1.797,4-4s-1.793-4-4-4
	h-8c-2.211,0-4-1.789-4-4v-8c0-2.203-1.793-4-4-4s-4,1.797-4,4v8c0,2.211-1.789,4-4,4H28z"/>
<path fill="#4CAF50" d="M96,60c0,4.422-3.582,8-8,8s-8-3.578-8-8s3.582-8,8-8S96,55.578,96,60z"/>
<path fill="#03A9F4" d="M112,52c0,4.422-3.582,8-8,8s-8-3.578-8-8s3.582-8,8-8S112,47.578,112,52z"/>
<path fill="#FF9800" d="M96,84c0,4.422-3.582,8-8,8s-8-3.578-8-8s3.582-8,8-8S96,79.578,96,84z"/>
<path fill="#F44336" d="M112,76c0,4.422-3.582,8-8,8s-8-3.578-8-8s3.582-8,8-8S112,71.578,112,76z"/>
</svg>
