<?xml version="1.0" encoding="utf-8"?>
<!-- Generator: Adobe Illustrator 16.0.0, SVG Export Plug-In . SVG Version: 6.00 Build 0)  -->
<!DOCTYPE svg PUBLIC "-//W3C//DTD SVG 1.1//EN" "http://www.w3.org/Graphics/SVG/1.1/DTD/svg11.dtd">
<svg version="1.1" id="Layer_1" xmlns="http://www.w3.org/2000/svg" xmlns:xlink="http://www.w3.org/1999/xlink" x="0px" y="0px"
	 width="128px" height="128px" viewBox="0 0 128 128" enable-background="new 0 0 128 128" xml:space="preserve">
<g>
	<g>
		<path fill="#B0BEC5" d="M50.234,116.258l1.098,4.078l3.629,1.086l24.664-14.797v-8L50.234,116.258z M77.176,84.094l-28.801,17.281
			v8l30.266-18.156L77.176,84.094z"/>
	</g>
</g>
<path fill="#FFE082" d="M80,32c-6.617,0-12,5.383-12,12v4h-8v-4c0-6.617-5.383-12-12-12s-12,5.383-12,12s5.383,12,12,12h4v24
	c0,2.211,1.789,4,4,4s4-1.789,4-4V56h8v24c0,2.211,1.789,4,4,4s4-1.789,4-4V56h4c6.617,0,12-5.383,12-12S86.617,32,80,32z M48,48
	c-2.207,0-4-1.797-4-4s1.793-4,4-4s4,1.797,4,4v4H48z M80,48h-4v-4c0-2.203,1.793-4,4-4s4,1.797,4,4S82.207,48,80,48z"/>
<path fill="#546E7A" d="M90.328,79.25l-6.543-1.438C83.609,76.656,76,79.266,76,80v32c0,4.414-3.59,8-8,8h-8c-4.414,0-8-3.586-8-8
	V80c0-0.734-7.609-3.344-7.785-2.188l-6.543,1.438l-0.039,0.047C41.477,82.227,44,86.797,44,92v20c0,8.836,7.164,16,16,16h8
	c8.836,0,16-7.164,16-16V92c0-5.203,2.523-9.773,6.367-12.703L90.328,79.25z"/>
<path fill="#FFA000" d="M64,8c19.852,0,36,16.148,36,36S83.852,80,64,80S28,63.852,28,44S44.148,8,64,8 M64,0
	C39.703,0,20,19.703,20,44s19.703,44,44,44s44-19.703,44-44S88.297,0,64,0L64,0z"/>
</svg>
