<?xml version="1.0" encoding="utf-8"?>
<!-- Generator: Adobe Illustrator 16.0.0, SVG Export Plug-In . SVG Version: 6.00 Build 0)  -->
<!DOCTYPE svg PUBLIC "-//W3C//DTD SVG 1.1//EN" "http://www.w3.org/Graphics/SVG/1.1/DTD/svg11.dtd">
<svg version="1.1" id="Layer_1" xmlns="http://www.w3.org/2000/svg" xmlns:xlink="http://www.w3.org/1999/xlink" x="0px" y="0px"
	 width="128px" height="128px" viewBox="0 0 128 128" enable-background="new 0 0 128 128" xml:space="preserve">
<g>
	<g>
		<path fill="#F44336" d="M117.996,8.242C115.176,3.156,109.816,0,104,0H24c-5.816,0-11.176,3.156-13.996,8.242
			c-2.816,5.086-2.656,11.305,0.43,16.234l11.605,18.57c1.809-2.055,3.742-3.992,5.832-5.766L17.215,20.234
			c-1.539-2.461-1.621-5.57-0.215-8.109C18.41,9.578,21.094,8,24,8h80c2.906,0,5.59,1.578,6.996,4.117
			c1.41,2.547,1.328,5.656-0.215,8.117l-10.656,17.047c2.09,1.773,4.027,3.711,5.836,5.766l11.605-18.57
			C120.652,19.547,120.813,13.328,117.996,8.242z"/>
	</g>
</g>
<path fill="#BDBDBD" d="M64,56c13.234,0,24,10.766,24,24s-10.766,24-24,24S40,93.234,40,80S50.766,56,64,56 M64,48
	c-17.672,0-32,14.328-32,32s14.328,32,32,32s32-14.328,32-32S81.672,48,64,48L64,48z"/>
<path fill="#616161" d="M64,40c22.055,0,40,17.945,40,40s-17.945,40-40,40s-40-17.945-40-40S41.945,40,64,40 M64,32
	c-26.508,0-48,21.492-48,48s21.492,48,48,48s48-21.492,48-48S90.508,32,64,32L64,32z"/>
</svg>
