<?xml version="1.0" encoding="utf-8"?>
<!-- Generator: Adobe Illustrator 16.0.0, SVG Export Plug-In . SVG Version: 6.00 Build 0)  -->
<!DOCTYPE svg PUBLIC "-//W3C//DTD SVG 1.1//EN" "http://www.w3.org/Graphics/SVG/1.1/DTD/svg11.dtd">
<svg version="1.1" id="Layer_1" xmlns="http://www.w3.org/2000/svg" xmlns:xlink="http://www.w3.org/1999/xlink" x="0px" y="0px"
	 width="128px" height="128px" viewBox="0 0 128 128" enable-background="new 0 0 128 128" xml:space="preserve">
<path fill="#546E7A" d="M112,20c-2.211,0-4,1.789-4,4v2.223L52,13.777V8c0-2.211-1.789-4-4-4s-4,1.789-4,4v71.273
	C40.648,77.246,36.523,76,32,76c-11.047,0-20,7.164-20,16s8.953,16,20,16s20-7.164,20-16V45.777l56,12.445v37.051
	C104.648,93.246,100.523,92,96,92c-11.047,0-20,7.164-20,16s8.953,16,20,16s20-7.164,20-16V24C116,21.789,114.211,20,112,20z
	 M32,100c-6.391,0-12-3.738-12-8s5.609-8,12-8s12,3.738,12,8S38.391,100,32,100z M96,116c-6.391,0-12-3.738-12-8s5.609-8,12-8
	s12,3.738,12,8S102.391,116,96,116z M52,37.582V21.973l56,12.445v15.609L52,37.582z"/>
</svg>
