<?xml version="1.0" encoding="utf-8"?>
<!-- Generator: Adobe Illustrator 16.0.0, SVG Export Plug-In . SVG Version: 6.00 Build 0)  -->
<!DOCTYPE svg PUBLIC "-//W3C//DTD SVG 1.1//EN" "http://www.w3.org/Graphics/SVG/1.1/DTD/svg11.dtd">
<svg version="1.1" id="Layer_1" xmlns="http://www.w3.org/2000/svg" xmlns:xlink="http://www.w3.org/1999/xlink" x="0px" y="0px"
	 width="128px" height="128px" viewBox="0 0 128 128" enable-background="new 0 0 128 128" xml:space="preserve">
<g>
	<g>
		<path fill-rule="evenodd" clip-rule="evenodd" fill="#B0BEC5" d="M8,120h8v-8H8V120z M24,112v-8h-8v8H24z M8,104h8v-8H8V104z
			 M24,96v-8h-8v8H24z M8,88h8v-8H8V88z M24,80v-8h-8v8H24z M8,72h8v-8H8V72z M16,64h8v-8h-8V64z M40,80h72V48H40V80z M48,56h56v16
			H48V56z M64,16H40v24h24V16z M72,16v8h40v-8H72z M96,32H72v8h24V32z M40,112h32v-8H40V112z M40,96h32v-8H40V96z M80,96h32v-8H80
			V96z M80,112h16v-8H80V112z"/>
	</g>
</g>
<path fill-rule="evenodd" clip-rule="evenodd" fill="#546E7A" d="M104,128H56H16c-8.836,0-16-7.164-16-16V48h24V0h104v104
	C128,117.258,117.258,128,104,128z M8,112c0,4.422,3.578,8,8,8s8-3.578,8-8v-8h-8V56H8V112z M120,8H32v104
	c0,2.805-0.484,5.5-1.367,8H104c8.82,0,16-7.18,16-16V8z"/>
</svg>
