<?xml version="1.0" encoding="utf-8"?>
<!-- Generator: Adobe Illustrator 16.0.0, SVG Export Plug-In . SVG Version: 6.00 Build 0)  -->
<!DOCTYPE svg PUBLIC "-//W3C//DTD SVG 1.1//EN" "http://www.w3.org/Graphics/SVG/1.1/DTD/svg11.dtd">
<svg version="1.1" id="Layer_1" xmlns="http://www.w3.org/2000/svg" xmlns:xlink="http://www.w3.org/1999/xlink" x="0px" y="0px"
	 width="128px" height="128px" viewBox="0 0 128 128" enable-background="new 0 0 128 128" xml:space="preserve">
<g>
	<g>
		<path fill="#B0BEC5" d="M108,0H20C11.164,0,4,7.164,4,16v96c0,8.836,7.164,16,16,16h88c8.836,0,16-7.164,16-16V16
			C124,7.164,116.836,0,108,0z M116,112c0,4.414-3.59,8-8,8h-8V72h-8v48H68V72h-8v48H36V72h-8v48h-8c-4.41,0-8-3.586-8-8V16
			c0-4.414,3.59-8,8-8h88c4.41,0,8,3.586,8,8V112z"/>
	</g>
</g>
<path fill="#546E7A" d="M44,0H20v64c0,4.422,3.582,8,8,8h8c4.418,0,8-3.578,8-8V0L44,0z"/>
<path fill="#546E7A" d="M76,0H52v64c0,4.422,3.582,8,8,8h8c4.418,0,8-3.578,8-8V0L76,0z"/>
<path fill="#546E7A" d="M108,0H84v64c0,4.422,3.582,8,8,8h8c4.418,0,8-3.578,8-8V0L108,0z"/>
</svg>
