<?xml version="1.0" encoding="utf-8"?>
<!-- Generator: Adobe Illustrator 16.0.0, SVG Export Plug-In . SVG Version: 6.00 Build 0)  -->
<!DOCTYPE svg PUBLIC "-//W3C//DTD SVG 1.1//EN" "http://www.w3.org/Graphics/SVG/1.1/DTD/svg11.dtd">
<svg version="1.1" id="Layer_1" xmlns="http://www.w3.org/2000/svg" xmlns:xlink="http://www.w3.org/1999/xlink" x="0px" y="0px"
	 width="128px" height="128px" viewBox="0 0 128 128" enable-background="new 0 0 128 128" xml:space="preserve">
<g>
	<g>
		<path fill="#F44336" d="M87.999,72c-8.836,0-16,7.164-16,16s7.164,16,16,16s16-7.164,16-16S96.835,72,87.999,72z M87.999,96
			c-4.41,0-8-3.59-8-8s3.59-8,8-8s8,3.59,8,8S92.409,96,87.999,96z"/>
	</g>
</g>
<path fill="#F44336" d="M123.375,60.688l-56.032-56C64.218,1.561,60.108,0,56.014,0c-4.094,0-8.196,1.561-11.321,4.688L4.688,44.686
	c-6.25,6.248-6.252,16.381-0.002,22.627l56,56c3.125,3.125,7.218,4.688,11.312,4.688H120c2.105,0,4.176-0.832,5.688-2.344
	c1.309-1.309,2.313-3.011,2.313-4.807V73.305C128,68.785,126.832,64.145,123.375,60.688z M71.999,120
	c-2.137,0-4.145-0.832-5.656-2.344L10.341,61.652C8.829,60.145,7.997,58.137,7.997,56s0.832-4.145,2.344-5.656l40.001-40
	C51.854,8.832,53.862,8,55.999,8s4.145,0.832,5.656,2.344l56.001,56c2.219,2.219,2.422,4.91,2.309,6.313L120,120H71.999z"/>
</svg>
