<?xml version="1.0" encoding="utf-8"?>
<!-- Generator: Adobe Illustrator 16.0.0, SVG Export Plug-In . SVG Version: 6.00 Build 0)  -->
<!DOCTYPE svg PUBLIC "-//W3C//DTD SVG 1.1//EN" "http://www.w3.org/Graphics/SVG/1.1/DTD/svg11.dtd">
<svg version="1.1" id="Layer_1" xmlns="http://www.w3.org/2000/svg" xmlns:xlink="http://www.w3.org/1999/xlink" x="0px" y="0px"
	 width="128px" height="128px" viewBox="0 0 128 128" enable-background="new 0 0 128 128" xml:space="preserve">
<g>
	<g>
		<path fill-rule="evenodd" clip-rule="evenodd" fill="#546E7A" d="M112,32H96V16c0-8.836-7.164-16-16-16H48
			c-8.836,0-16,7.164-16,16v16H16C7.164,32,0,39.164,0,48v40c0,8.836,7.164,16,16,16h16v8c0,8.836,7.164,16,16,16h32
			c8.836,0,16-7.164,16-16v-8h16c8.836,0,16-7.164,16-16V48C128,39.164,120.836,32,112,32z M40,16c0-4.414,3.59-8,8-8h32
			c4.41,0,8,3.586,8,8v16H40V16z M88,112c0,4.414-3.59,8-8,8H48c-4.41,0-8-3.586-8-8V64h48V112z M120,88c0,4.414-3.59,8-8,8H96V56
			H32v40H16c-4.41,0-8-3.586-8-8V48c0-4.414,3.59-8,8-8h96c4.41,0,8,3.586,8,8V88z"/>
	</g>
</g>
<path fill="#03A9F4" d="M108,48c-2.211,0-4,1.789-4,4s1.789,4,4,4s4-1.789,4-4S110.211,48,108,48z"/>
<path fill="#03A9F4" d="M108,64c-2.211,0-4,1.789-4,4s1.789,4,4,4s4-1.789,4-4S110.211,64,108,64z"/>
<path fill="#03A9F4" d="M108,80c-2.211,0-4,1.789-4,4s1.789,4,4,4s4-1.789,4-4S110.211,80,108,80z"/>
<path fill-rule="evenodd" clip-rule="evenodd" fill="#B0BEC5" d="M48,72h32v8H48V72z M80,112H48v-8h32V112z M48,88h32v8H48V88z"/>
</svg>
