<?xml version="1.0" encoding="utf-8"?>
<!-- Generator: Adobe Illustrator 16.0.0, SVG Export Plug-In . SVG Version: 6.00 Build 0)  -->
<!DOCTYPE svg PUBLIC "-//W3C//DTD SVG 1.1//EN" "http://www.w3.org/Graphics/SVG/1.1/DTD/svg11.dtd">
<svg version="1.1" id="Layer_1" xmlns="http://www.w3.org/2000/svg" xmlns:xlink="http://www.w3.org/1999/xlink" x="0px" y="0px"
	 width="128px" height="128px" viewBox="0 0 128 128" enable-background="new 0 0 128 128" xml:space="preserve">
<g>
	<g>
		<path fill="#546E7A" d="M92,68c-5.922,0-11.281,2-15.781,5.156l-12.422-7.094C63.852,65.375,64,64.703,64,64
			s-0.148-1.375-0.203-2.063l12.422-7.102C80.719,58,86.078,60,92,60c15.453,0,28-12.531,28-28S107.453,4,92,4S64,16.531,64,32
			c0,0.703,0.148,1.375,0.203,2.063l-12.422,7.094C47.281,38,41.922,36,36,36C20.539,36,8,48.531,8,64s12.539,28,28,28
			c5.922,0,11.281-2,15.781-5.156l12.422,7.094C64.148,94.625,64,95.297,64,96c0,15.469,12.539,28,28,28s28-12.531,28-28
			S107.461,68,92,68z M92,116c-11.031,0-20-8.969-20-20c0-2.18,0.438-4.234,1.086-6.203l-2.773-1.586l-12.336-7.047l-7.023-4.016
			C47.281,81.313,41.977,84,36,84c-11.027,0-20-8.969-20-20s8.973-20,20-20c5.977,0,11.281,2.688,14.953,6.852l3.383-1.93L66,42.25
			l7.086-4.047C72.438,36.234,72,34.18,72,32c0-11.031,8.969-20,20-20s20,8.969,20,20s-8.969,20-20,20
			c-5.977,0-11.281-2.688-14.953-6.852l-2.328,1.336l-16.328,9.328l-3.477,1.984C55.563,59.766,56,61.82,56,64
			s-0.438,4.234-1.086,6.203l3.492,2l15.461,8.828l3.18,1.82C80.719,78.688,86.023,76,92,76c11.031,0,20,8.969,20,20
			S103.031,116,92,116z"/>
	</g>
</g>
<path fill="#B0BEC5" d="M92,44c6.625,0,12-5.375,12-12s-5.375-12-12-12s-12,5.375-12,12S85.375,44,92,44z M92,28
	c2.207,0,4,1.797,4,4s-1.793,4-4,4s-4-1.797-4-4S89.793,28,92,28z"/>
<path fill="#B0BEC5" d="M92,84c-6.625,0-12,5.375-12,12s5.375,12,12,12s12-5.375,12-12S98.625,84,92,84z M92,100
	c-2.207,0-4-1.797-4-4s1.793-4,4-4s4,1.797,4,4S94.207,100,92,100z"/>
<path fill="#B0BEC5" d="M36,52c-6.625,0-12,5.375-12,12s5.375,12,12,12s12-5.375,12-12S42.625,52,36,52z M36,68
	c-2.207,0-4-1.797-4-4s1.793-4,4-4s4,1.797,4,4S38.207,68,36,68z"/>
</svg>
