<?xml version="1.0" encoding="utf-8"?>
<!-- Generator: Adobe Illustrator 16.0.0, SVG Export Plug-In . SVG Version: 6.00 Build 0)  -->
<!DOCTYPE svg PUBLIC "-//W3C//DTD SVG 1.1//EN" "http://www.w3.org/Graphics/SVG/1.1/DTD/svg11.dtd">
<svg version="1.1" id="Layer_1" xmlns="http://www.w3.org/2000/svg" xmlns:xlink="http://www.w3.org/1999/xlink" x="0px" y="0px"
	 width="128px" height="128px" viewBox="0 0 128 128" enable-background="new 0 0 128 128" xml:space="preserve">
<path fill="#8BC34A" d="M48,16c0,8.82,7.176,16,16,16c8.809,0,15.98-7.156,15.988-15.961c4.641,0.859,23.715,8.68,39.262,15.672
	c0.246,0.109,0.492,0.203,0.75,0.289v16l-21.469-7.156c-0.828-0.281-1.68-0.414-2.531-0.414c-1.656,0-3.297,0.516-4.676,1.508
	C89.234,43.445,88,45.859,88,48.43V104c0,4.414-3.59,8-8,8H48c-4.41,0-8-3.586-8-8V48.43c0-2.57-1.234-4.984-3.324-6.492
	c-1.379-0.992-3.02-1.508-4.676-1.508c-0.852,0-1.703,0.133-2.531,0.414L8,48L7.992,32.008c0.258-0.086,0.512-0.188,0.758-0.297
	C24.707,24.531,44.383,16.484,48,16 M80,8c-4.418,0-8,3.578-8,8c0,4.414-3.59,8-8,8s-8-3.586-8-8c0-4.422-3.582-8-8-8
	C41.965,8,5.469,24.414,5.469,24.414C2.203,25.5,0,28.555,0,32v16c0,2.57,1.234,4.984,3.324,6.492C4.703,55.484,6.344,56,8,56
	c0.852,0,1.703-0.133,2.531-0.414L32,48.43V104c0,8.836,7.164,16,16,16h32c8.836,0,16-7.164,16-16V48.43l21.469,7.156
	C118.297,55.867,119.148,56,120,56c1.656,0,3.297-0.516,4.676-1.508C126.766,52.984,128,50.57,128,48V32
	c0-3.445-2.203-6.5-5.469-7.586C122.531,24.414,86.035,8,80,8L80,8z"/>
</svg>
