<?xml version="1.0" encoding="utf-8"?>
<!-- Generator: Adobe Illustrator 16.0.0, SVG Export Plug-In . SVG Version: 6.00 Build 0)  -->
<!DOCTYPE svg PUBLIC "-//W3C//DTD SVG 1.1//EN" "http://www.w3.org/Graphics/SVG/1.1/DTD/svg11.dtd">
<svg version="1.1" id="Layer_1" xmlns="http://www.w3.org/2000/svg" xmlns:xlink="http://www.w3.org/1999/xlink" x="0px" y="0px"
	 width="128px" height="128px" viewBox="0 0 128 128" enable-background="new 0 0 128 128" xml:space="preserve">
<g>
	<g>
		<path fill="#B0BEC5" d="M124,112H16V4c0-2.211-1.789-4-4-4S8,1.789,8,4v12H4c-2.211,0-4,1.789-4,4s1.789,4,4,4h4v24H4
			c-2.211,0-4,1.789-4,4s1.789,4,4,4h4v24H4c-2.211,0-4,1.789-4,4s1.789,4,4,4h4v24H4c-2.211,0-4,1.789-4,4s1.789,4,4,4h4v4
			c0,2.211,1.789,4,4,4s4-1.789,4-4v-4h24v4c0,2.211,1.789,4,4,4s4-1.789,4-4v-4h24v4c0,2.211,1.789,4,4,4s4-1.789,4-4v-4h24v4
			c0,2.211,1.789,4,4,4s4-1.789,4-4v-4h12c2.211,0,4-1.789,4-4S126.211,112,124,112z"/>
	</g>
</g>
<path fill="#546E7A" d="M116,24c-6.625,0-12,5.375-12,12c0,2.898,1.07,5.516,2.781,7.594L94.391,64.242
	C93.617,64.086,92.82,64,92,64c-3.23,0-6.152,1.297-8.313,3.375l-11.836-5.922C71.914,60.969,72,60.5,72,60c0-6.625-5.375-12-12-12
	s-12,5.375-12,12c0,2.461,0.746,4.742,2.016,6.648L39.555,80.594C38.422,80.242,37.246,80,36,80c-6.625,0-12,5.375-12,12
	s5.375,12,12,12s12-5.375,12-12c0-2.461-0.746-4.742-2.016-6.648l10.461-13.945C57.578,71.758,58.754,72,60,72
	c3.23,0,6.152-1.297,8.313-3.375l11.836,5.922C80.086,75.031,80,75.5,80,76c0,6.625,5.375,12,12,12s12-5.375,12-12
	c0-2.898-1.07-5.516-2.781-7.594l12.391-20.648C114.383,47.914,115.18,48,116,48c6.625,0,12-5.375,12-12S122.625,24,116,24z"/>
</svg>
