<?xml version="1.0" encoding="utf-8"?>
<!-- Generator: Adobe Illustrator 16.0.0, SVG Export Plug-In . SVG Version: 6.00 Build 0)  -->
<!DOCTYPE svg PUBLIC "-//W3C//DTD SVG 1.1//EN" "http://www.w3.org/Graphics/SVG/1.1/DTD/svg11.dtd">
<svg version="1.1" id="Layer_1" xmlns="http://www.w3.org/2000/svg" xmlns:xlink="http://www.w3.org/1999/xlink" x="0px" y="0px"
	 width="128px" height="128px" viewBox="0 0 128 128" enable-background="new 0 0 128 128" xml:space="preserve">
<g>
	<g>
		<path fill="#B0BEC5" d="M20,60h88c2.211,0,4-1.789,4-4s-1.789-4-4-4H20c-2.213,0-4,1.789-4,4S17.787,60,20,60z M108,68H20
			c-2.213,0-4,1.789-4,4s1.787,4,4,4h88c2.211,0,4-1.789,4-4S110.211,68,108,68z M108,84H20c-2.213,0-4,1.789-4,4s1.787,4,4,4h88
			c2.211,0,4-1.789,4-4S110.211,84,108,84z"/>
	</g>
</g>
<path fill="#546E7A" d="M112,28H88c0-8.836-7.164-16-16-16H56c-8.836,0-16,7.164-16,16H16C7.164,28,0,35.164,0,44v56
	c0,8.836,7.164,16,16,16h96c8.836,0,16-7.164,16-16V44C128,35.164,120.836,28,112,28z M56,20h16c4.414,0,8,3.586,8,8H48
	C48,23.586,51.586,20,56,20z M120,100c0,4.414-3.586,8-8,8H16c-4.414,0-8-3.586-8-8V44c0-4.414,3.586-8,8-8h96c4.414,0,8,3.586,8,8
	V100z"/>
</svg>
