<?xml version="1.0" encoding="utf-8"?>
<!-- Generator: Adobe Illustrator 16.0.0, SVG Export Plug-In . SVG Version: 6.00 Build 0)  -->
<!DOCTYPE svg PUBLIC "-//W3C//DTD SVG 1.1//EN" "http://www.w3.org/Graphics/SVG/1.1/DTD/svg11.dtd">
<svg version="1.1" id="Layer_1" xmlns="http://www.w3.org/2000/svg" xmlns:xlink="http://www.w3.org/1999/xlink" x="0px" y="0px"
	 width="128px" height="128px" viewBox="0 0 128 128" enable-background="new 0 0 128 128" xml:space="preserve">
<g>
	<g>
		<path fill="#FFE082" d="M64,4c-2.211,0-4,1.789-4,4v8c0,2.211,1.789,4,4,4s4-1.789,4-4V8C68,5.789,66.211,4,64,4z M64,108
			c-2.211,0-4,1.789-4,4v8c0,2.211,1.789,4,4,4s4-1.789,4-4v-8C68,109.789,66.211,108,64,108z M120,60h-8c-2.211,0-4,1.789-4,4
			s1.789,4,4,4h8c2.211,0,4-1.789,4-4S122.211,60,120,60z M16,60H8c-2.211,0-4,1.789-4,4s1.789,4,4,4h8c2.211,0,4-1.789,4-4
			S18.211,60,16,60z M100.77,21.574l-5.656,5.656c-1.563,1.563-1.563,4.094,0,5.656s4.094,1.563,5.656,0l5.656-5.656
			c1.563-1.563,1.563-4.094,0-5.656S102.332,20.012,100.77,21.574z M27.23,95.113l-5.656,5.656c-1.563,1.563-1.563,4.094,0,5.656
			s4.094,1.563,5.656,0l5.656-5.656c1.563-1.563,1.563-4.094,0-5.656S28.793,93.551,27.23,95.113z M27.23,21.574
			c-1.563-1.563-4.094-1.563-5.656,0s-1.563,4.094,0,5.656l5.656,5.656c1.563,1.563,4.094,1.563,5.656,0s1.563-4.094,0-5.656
			L27.23,21.574z M100.77,95.113c-1.563-1.563-4.094-1.563-5.656,0s-1.563,4.094,0,5.656l5.656,5.656
			c1.563,1.563,4.094,1.563,5.656,0s1.563-4.094,0-5.656L100.77,95.113z"/>
	</g>
</g>
<path fill="#FFA000" d="M64,28c-19.883,0-36,16.117-36,36s16.117,36,36,36s36-16.117,36-36S83.883,28,64,28z M64,92
	c-15.438,0-28-12.563-28-28s12.563-28,28-28s28,12.563,28,28S79.438,92,64,92z"/>
</svg>
