<?xml version="1.0" encoding="utf-8"?>
<!-- Generator: Adobe Illustrator 16.0.0, SVG Export Plug-In . SVG Version: 6.00 Build 0)  -->
<!DOCTYPE svg PUBLIC "-//W3C//DTD SVG 1.1//EN" "http://www.w3.org/Graphics/SVG/1.1/DTD/svg11.dtd">
<svg version="1.1" id="Layer_1" xmlns="http://www.w3.org/2000/svg" xmlns:xlink="http://www.w3.org/1999/xlink" x="0px" y="0px"
	 width="128px" height="128px" viewBox="0 0 128 128" enable-background="new 0 0 128 128" xml:space="preserve">
<g>
	<g>
		<path fill-rule="evenodd" clip-rule="evenodd" fill="#546E7A" d="M80,80H68v8h12c2.203,0,4,1.797,4,4s-1.797,4-4,4H68v20
			c0,2.203-1.797,4-4,4s-4-1.797-4-4V96H48c-2.203,0-4-1.797-4-4s1.797-4,4-4h12v-8H48c-6.625,0-12,5.375-12,12s5.375,12,12,12h4v12
			c0,6.625,5.375,12,12,12s12-5.375,12-12v-12h4c6.625,0,12-5.375,12-12S86.625,80,80,80z"/>
	</g>
</g>
<path fill="#03A9F4" d="M68,88v8h-8v-8H68 M76,80H52v24h24V80L76,80z"/>
<path fill-rule="evenodd" clip-rule="evenodd" fill="#B0BEC5" d="M68,12c0-2.203-1.797-4-4-4s-4,1.797-4,4v68h-8V12
	c0-6.625,5.375-12,12-12s12,5.375,12,12v68h-8V12z"/>
</svg>
