<?xml version="1.0" encoding="utf-8"?>
<!-- Generator: Adobe Illustrator 16.0.0, SVG Export Plug-In . SVG Version: 6.00 Build 0)  -->
<!DOCTYPE svg PUBLIC "-//W3C//DTD SVG 1.1//EN" "http://www.w3.org/Graphics/SVG/1.1/DTD/svg11.dtd">
<svg version="1.1" id="Layer_1" xmlns="http://www.w3.org/2000/svg" xmlns:xlink="http://www.w3.org/1999/xlink" x="0px" y="0px"
	 width="128px" height="128px" viewBox="0 0 128 128" enable-background="new 0 0 128 128" xml:space="preserve">
<g>
	<g>
		<path fill="#F44336" d="M127.383,67.594l-16-55.992C109.422,4.734,103.145,0,96,0H48c-8.836,0-16,7.164-16,15.992v72h0.102
			c-0.008,1.68,0.156,3.367,0.719,5.055l8,24C43.051,123.75,49.301,128,55.988,128c1.684,0,3.391-0.273,5.066-0.836
			c8.387-2.797,12.918-11.859,10.125-20.242c0,0-3.18-10.516-3.18-10.906c0-4.422,3.582-8,8-8l-0.004-0.023H112
			c5.02,0,9.75-2.359,12.773-6.367S128.766,72.422,127.383,67.594z M118.387,76.805c-1.504,2-3.891,3.188-6.387,3.188H75.996
			c-0.289,0-0.578,0.016-0.863,0.047C66.711,80.492,60,87.484,60,96.016c0,1.391,0,1.57,3.523,13.219
			c1.461,4.406-0.809,8.945-4.996,10.344c-0.84,0.281-1.688,0.422-2.539,0.422c-3.441,0-6.488-2.203-7.578-5.477l-8-24.008
			c-0.215-0.641-0.313-1.438-0.309-2.484c0-0.445-0.031-0.883-0.102-1.313V15.992C40,11.586,43.59,8,48,8h48
			c3.555,0,6.715,2.383,7.691,5.797L106.607,24H76c-2.211,0-4,1.789-4,4s1.789,4,4,4h32.893l2.286,8H84c-2.211,0-4,1.789-4,4
			s1.789,4,4,4h29.465l2.286,8H92c-2.211,0-4,1.789-4,4s1.789,4,4,4h26.037l1.654,5.789
			C120.379,72.195,119.891,74.813,118.387,76.805z"/>
	</g>
</g>
<path fill="#B0BEC5" d="M12,80c-2.207,0-4-1.797-4-4V20c0-2.203,1.793-4,4-4s4,1.797,4,4v56C16,78.203,14.207,80,12,80 M12,88
	c6.629,0,12-5.375,12-12V20c0-6.625-5.371-12-12-12S0,13.375,0,20v56C0,82.625,5.371,88,12,88L12,88z"/>
</svg>
