<?xml version="1.0" encoding="utf-8"?>
<!-- Generator: Adobe Illustrator 16.0.0, SVG Export Plug-In . SVG Version: 6.00 Build 0)  -->
<!DOCTYPE svg PUBLIC "-//W3C//DTD SVG 1.1//EN" "http://www.w3.org/Graphics/SVG/1.1/DTD/svg11.dtd">
<svg version="1.1" id="Layer_1" xmlns="http://www.w3.org/2000/svg" xmlns:xlink="http://www.w3.org/1999/xlink" x="0px" y="0px"
	 width="128px" height="128px" viewBox="0 0 128 128" enable-background="new 0 0 128 128" xml:space="preserve">
<g>
	<g>
		<path fill="#546E7A" d="M108,40H76v-8c0-4.418,3.578-8,8-8h8c4.422,0,8,3.582,8,8h24c0-17.672-14.328-32-32-32h-8
			C66.328,0,52,14.328,52,32v8H20c-8.836,0-16,7.164-16,16v56c0,8.84,7.164,16,16,16h88c8.836,0,16-7.16,16-16V56
			C124,47.164,116.836,40,108,40z M60,32C60,18.766,70.766,8,84,8h8c10.414,0,19.211,6.707,22.523,16h-8.75
			C103,19.242,97.891,16,92,16h-8c-8.82,0-16,7.176-16,16v8h-8V32z M116,112c0,4.41-3.586,8-8,8H20c-4.414,0-8-3.59-8-8V56
			c0-4.41,3.586-8,8-8h88c4.414,0,8,3.59,8,8V112z"/>
	</g>
</g>
<path fill="#B0BEC5" d="M76,76c0-6.629-5.375-12-12-12s-12,5.371-12,12c0,5.219,3.352,9.613,8,11.266V100c0,2.211,1.789,4,4,4
	s4-1.789,4-4V87.266C72.648,85.613,76,81.219,76,76z"/>
</svg>
