<?xml version="1.0" encoding="utf-8"?>
<!-- Generator: Adobe Illustrator 16.0.0, SVG Export Plug-In . SVG Version: 6.00 Build 0)  -->
<!DOCTYPE svg PUBLIC "-//W3C//DTD SVG 1.1//EN" "http://www.w3.org/Graphics/SVG/1.1/DTD/svg11.dtd">
<svg version="1.1" id="Layer_1" xmlns="http://www.w3.org/2000/svg" xmlns:xlink="http://www.w3.org/1999/xlink" x="0px" y="0px"
	 width="128px" height="128px" viewBox="0 0 128 128" enable-background="new 0 0 128 128" xml:space="preserve">
<g>
	<g>
		<path fill="#B0BEC5" d="M64,24C37.813,24,14.633,39.75,0,64c14.633,24.25,37.813,40,64,40c26.195,0,49.367-15.75,64-40
			C113.367,39.75,90.195,24,64,24z M64,96C42.922,96,23.281,84.406,9.492,64C23.281,43.594,42.922,32,64,32s40.719,11.594,54.508,32
			C104.719,84.406,85.078,96,64,96z"/>
	</g>
</g>
<path fill="#03A9F4" d="M64,40c-13.258,0-24,10.742-24,24s10.742,24,24,24s24-10.742,24-24S77.258,40,64,40z M64,80
	c-8.82,0-16-7.18-16-16s7.18-16,16-16v16h16C80,72.82,72.82,80,64,80z"/>
</svg>
